Apocalypse Now Redux (2001)

Director: Francis Ford Coppola

Apocalypse Now Redux is a 2001 extended version of the epic war film Apocalypse Now, which was originally released in 1979. Unlike other new cuts of the film, Redux is usually considered by fans and critics, as well as director Coppola, as a completely new movie altogether.

The movie adds 49 minutes of all-new material, and represents a significant re-edit of the original Apocalypse Now. The movie came into production when Coppola concluded that his original cut was tame by today's standards. Coppola, along with editor/long-time collaborator Walter Murch, then added several scenes that enhanced the surrealism in the original story.

The extended version of the film was distributed by Paramount Pictures in the US and Miramax Films overseas, whilst the original cut was distributed by United Artists.

Vittorio Storaro also came back from Italy to head a new color balance of the film and new scenes. When Redux was being released, Storaro learned that a Technicolor dye-transfer process was being brought back. The dye-transfer is a three-strip process, that makes the color highly saturated and has consistent black tone. Storaro wished to use this on Redux, but a problem was that in order to do it, they needed to cut the original negative of Apocalypse Now, leaving Apocalypse Now Redux the only version available. Storaro decided to do it, when convinced by Coppola that this version would be the one that would be remembered.

Media Info:
General
Complete name                    : J:\Seeding\Apocalypse Now Redux (2001)[DVDRip][big_dad_e™]\Apocalypse Now Redux (2001)[DVDRip][big_dad_e™].avi
Format                           : AVI
Format/Info                      : Audio Video Interleave
Format profile                   : OpenDML
File size                        : 2.23 GiB
Duration                         : 3h 22mn
Overall bit rate                 : 1 579 Kbps
Movie name                       : APOCALYPSE_NOW_REDUX.Title1.DVDRip
Writing application              : Lavf52.78.4
Original source form/Name        : APOCALYPSE_NOW_REDUX

Video
ID                               : 0
Format                           : MPEG-4 Visual
Format profile                   : Advanced Simple@L5
Format settings, BVOP            : 2
Format settings, QPel            : No
Format settings, GMC             : No warppoints
Format settings, Matrix          : Default (H.263)
Muxing mode                      : Packed bitstream
Codec ID                         : XVID
Codec ID/Hint                    : XviD
Duration                         : 3h 22mn
Bit rate                         : 731 Kbps
Width                            : 720 pixels
Height                           : 362 pixels
Display aspect ratio             : 1.989
Frame rate                       : 23.976 fps
Color space                      : YUV
Chroma subsampling               : 4:2:0
Bit depth                        : 8 bits
Scan type                        : Progressive
Compression mode                 : Lossy
Bits/(Pixel*Frame)               : 0.117
Stream size                      : 1.03 GiB (46%)
Writing library                  : XviD 

Audio
ID                               : 1
Format                           : MPEG Audio
Format version                   : Version 1
Format profile                   : Layer 3
Mode                             : Joint stereo
Mode extension                   : MS Stereo
Codec ID                         : 55
Codec ID/Hint                    : MP3
Duration                         : 3h 22mn
Bit rate mode                    : Constant
Bit rate                         : 320 Kbps
Channel(s)                       : 2 channels
Sampling rate                    : 48.0 KHz
Compression mode                 : Lossy
Stream size                      : 62.8 MiB (3%)
Alignment                        : Aligned on interleaves
Interleave, duration             : 102 ms (2.44 video frames)
Interleave, preload duration     : 24 ms
Writing library                  : LAME3.98.4

File Scan:
Malwarebytes' Anti-Malware 1.50.1.1100
www.malwarebytes.org

Database version: 6176
3/26/2011 12:26:54 PM
mbam-log-2011-03-26 (12-26-54).txt

Scan type: Quick scan
Objects scanned: 5
Time elapsed: 1 minute(s), 0 second(s)

Memory Processes Infected: 0
Memory Modules Infected: 0
Registry Keys Infected: 0
Registry Values Infected: 0
Registry Data Items Infected: 0
Folders Infected: 0
Files Infected: 0

Memory Processes Infected:
(No malicious items detected)

Memory Modules Infected:
(No malicious items detected)

Registry Keys Infected:
(No malicious items detected)

Registry Values Infected:
(No malicious items detected)

Registry Data Items Infected:
(No malicious items detected)

Folders Infected:
(No malicious items detected)

Files Infected:
(No malicious items detected)

When using TPB please read these important notes:
  
01- Anti-malware apps may warn about keygens, patches, cracks, etc., because of 
    their capabilities, (generating codes, etc.). Sometimes they're added to 
    the virus/spyware database and will be detected as malware. If you don't trust
    the keygens, patches, cracks, etc., don't use them. 
    
02- Before running .exe-files, keygens, patches, cracks, etc., always check first 
    if they can be unpacked. Often some third party added a virus to the 
    original file, repacked it and uploaded it again.

03- Letting anti-malware apps send scan results to their companies can cause
    keygens, patches, cracks, etc., to be added to their virus-database.

04- Firewalls which are set to automatically determine connections will allow 
    apps & malware!. Avoid this by manually configuring your firewall.

05- Usually (new) torrents with many downloads and seeders in a brief period is
    suspicious! Torrents with the Skull & Crossbones icon are trusted.

06- Some people use multiple accounts and post fake comments 
    and/or files trying to spread confusion. They seldom seriously
    comment or have any torrents, or a just a few to look passable.

07- Clicking on unknown links can cause malware to be installed on your machine.
  
08- In general often there are more fake and negative comments than reliable and
    positive comments.

09- In some countries uploading/downloading copyright protected material is 
    forbidden, but showing some appreciation to reliable up-loaders is not.

10- Posting fake and negative comments or fake/infected uploads on TPB can result
    in getting banned from TPB!

Requests?  Find me on SuprBay. http://forum.suprbay.org
 

For reporting bad or suspicious torrents:  
http://forum.suprbay.org/forumdisplay.php?fid=29

For more of my torrents: 
https://thepiratebay.org/user/big_dad_e/  (Secured)

All torrents scanned with:
Norton Anti-virus
Malwarebytes' Anti-malware
 
http://www.pirate-party.us/

ALWAYS SEED & THANKS SEEDERS!